<svg width="540" height="42" viewBox="0 0 540 42" fill="none" xmlns="http://www.w3.org/2000/svg">
<rect width="540" height="42" rx="21" fill="#EFEFEF"/>
<rect x="458" width="82" height="42" rx="21" fill="#3670C7"/>
<g clip-path="url(#clip0_4897_104)">
<path d="M503.375 23.5H502.387L502.038 23.1625C503.263 21.7375 504 19.8875 504 17.875C504 13.3875 500.363 9.75 495.875 9.75C491.388 9.75 487.75 13.3875 487.75 17.875C487.75 22.3625 491.388 26 495.875 26C497.887 26 499.737 25.2625 501.162 24.0375L501.5 24.3875V25.375L507.75 31.6125L509.612 29.75L503.375 23.5ZM495.875 23.5C492.762 23.5 490.25 20.9875 490.25 17.875C490.25 14.7625 492.762 12.25 495.875 12.25C498.988 12.25 501.5 14.7625 501.5 17.875C501.5 20.9875 498.988 23.5 495.875 23.5Z" fill="white"/>
</g>
<path d="M35.568 19.152V16.578H34.11C33.81 16.578 33.558 16.612 33.354 16.68C33.154 16.744 32.992 16.834 32.868 16.95C32.748 17.066 32.66 17.202 32.604 17.358C32.552 17.51 32.526 17.676 32.526 17.856C32.526 18.052 32.552 18.23 32.604 18.39C32.656 18.55 32.744 18.686 32.868 18.798C32.992 18.91 33.154 18.998 33.354 19.062C33.558 19.122 33.81 19.152 34.11 19.152H35.568ZM37.182 24H35.568V20.412H34.68C34.584 20.412 34.49 20.422 34.398 20.442C34.31 20.458 34.224 20.49 34.14 20.538C34.06 20.582 33.98 20.644 33.9 20.724C33.82 20.8 33.742 20.9 33.666 21.024L32.136 23.442C32.036 23.61 31.902 23.746 31.734 23.85C31.566 23.95 31.366 24 31.134 24H29.916L31.908 20.952C32.148 20.568 32.454 20.294 32.826 20.13C32.506 20.046 32.226 19.932 31.986 19.788C31.75 19.644 31.554 19.476 31.398 19.284C31.242 19.088 31.126 18.872 31.05 18.636C30.974 18.396 30.936 18.14 30.936 17.868C30.936 17.496 31.006 17.154 31.146 16.842C31.29 16.53 31.496 16.262 31.764 16.038C32.036 15.814 32.368 15.64 32.76 15.516C33.156 15.388 33.606 15.324 34.11 15.324H37.182V24ZM47.3265 17.844V24H45.8445V20.406C45.8445 20.314 45.8485 20.214 45.8565 20.106C45.8685 19.994 45.8825 19.882 45.8985 19.77C45.8185 19.954 45.7305 20.116 45.6345 20.256C45.6265 20.264 45.5865 20.32 45.5145 20.424C45.4425 20.524 45.3485 20.654 45.2325 20.814C45.1205 20.974 44.9925 21.156 44.8485 21.36C44.7045 21.56 44.5585 21.764 44.4105 21.972C44.0625 22.464 43.6685 23.02 43.2285 23.64C43.1725 23.724 43.0985 23.806 43.0065 23.886C42.9185 23.966 42.8165 24.006 42.7005 24.006H41.7945V17.85H43.2765V21.444C43.2765 21.536 43.2705 21.638 43.2585 21.75C43.2505 21.858 43.2385 21.968 43.2225 22.08C43.3105 21.884 43.3985 21.722 43.4865 21.594C43.4905 21.586 43.5285 21.532 43.6005 21.432C43.6725 21.332 43.7645 21.202 43.8765 21.042C43.9925 20.882 44.1225 20.702 44.2665 20.502C44.4105 20.298 44.5565 20.09 44.7045 19.878C45.0525 19.386 45.4485 18.83 45.8925 18.21C45.9485 18.122 46.0225 18.04 46.1145 17.964C46.2065 17.884 46.3105 17.844 46.4265 17.844H47.3265ZM58.4326 22.902V25.62C58.4326 25.756 58.3926 25.864 58.3126 25.944C58.2366 26.024 58.1366 26.064 58.0126 26.064H57.0886V24H48.7906V17.844H50.2726V22.902H52.3066V17.844H53.7886V22.902H55.8226V17.844H57.3046V22.902H58.4326ZM64.6365 17.844L61.2825 25.692C61.2385 25.796 61.1805 25.874 61.1085 25.926C61.0405 25.982 60.9345 26.01 60.7905 26.01H59.6865L60.8385 23.538L58.3485 17.844H59.6505C59.7665 17.844 59.8565 17.872 59.9205 17.928C59.9885 17.984 60.0385 18.048 60.0705 18.12L61.3785 21.312C61.4225 21.42 61.4585 21.528 61.4865 21.636C61.5185 21.744 61.5485 21.854 61.5765 21.966C61.6125 21.854 61.6485 21.744 61.6845 21.636C61.7205 21.524 61.7605 21.414 61.8045 21.306L63.0405 18.12C63.0725 18.04 63.1245 17.974 63.1965 17.922C63.2725 17.87 63.3565 17.844 63.4485 17.844H64.6365ZM64.723 23.184C64.723 23.06 64.745 22.942 64.789 22.83C64.837 22.718 64.901 22.622 64.981 22.542C65.061 22.462 65.157 22.398 65.269 22.35C65.381 22.302 65.501 22.278 65.629 22.278C65.757 22.278 65.875 22.302 65.983 22.35C66.095 22.398 66.191 22.462 66.271 22.542C66.355 22.622 66.421 22.718 66.469 22.83C66.517 22.942 66.541 23.06 66.541 23.184C66.541 23.312 66.517 23.432 66.469 23.544C66.421 23.652 66.355 23.746 66.271 23.826C66.191 23.906 66.095 23.968 65.983 24.012C65.875 24.06 65.757 24.084 65.629 24.084C65.501 24.084 65.381 24.06 65.269 24.012C65.157 23.968 65.061 23.906 64.981 23.826C64.901 23.746 64.837 23.652 64.789 23.544C64.745 23.432 64.723 23.312 64.723 23.184ZM67.5707 23.184C67.5707 23.06 67.5927 22.942 67.6367 22.83C67.6847 22.718 67.7487 22.622 67.8287 22.542C67.9087 22.462 68.0047 22.398 68.1167 22.35C68.2287 22.302 68.3487 22.278 68.4767 22.278C68.6047 22.278 68.7227 22.302 68.8307 22.35C68.9427 22.398 69.0387 22.462 69.1187 22.542C69.2027 22.622 69.2687 22.718 69.3167 22.83C69.3647 22.942 69.3887 23.06 69.3887 23.184C69.3887 23.312 69.3647 23.432 69.3167 23.544C69.2687 23.652 69.2027 23.746 69.1187 23.826C69.0387 23.906 68.9427 23.968 68.8307 24.012C68.7227 24.06 68.6047 24.084 68.4767 24.084C68.3487 24.084 68.2287 24.06 68.1167 24.012C68.0047 23.968 67.9087 23.906 67.8287 23.826C67.7487 23.746 67.6847 23.652 67.6367 23.544C67.5927 23.432 67.5707 23.312 67.5707 23.184ZM70.4183 23.184C70.4183 23.06 70.4403 22.942 70.4843 22.83C70.5323 22.718 70.5963 22.622 70.6763 22.542C70.7563 22.462 70.8523 22.398 70.9643 22.35C71.0763 22.302 71.1963 22.278 71.3243 22.278C71.4523 22.278 71.5703 22.302 71.6783 22.35C71.7903 22.398 71.8863 22.462 71.9663 22.542C72.0503 22.622 72.1163 22.718 72.1643 22.83C72.2123 22.942 72.2363 23.06 72.2363 23.184C72.2363 23.312 72.2123 23.432 72.1643 23.544C72.1163 23.652 72.0503 23.746 71.9663 23.826C71.8863 23.906 71.7903 23.968 71.6783 24.012C71.5703 24.06 71.4523 24.084 71.3243 24.084C71.1963 24.084 71.0763 24.06 70.9643 24.012C70.8523 23.968 70.7563 23.906 70.6763 23.826C70.5963 23.746 70.5323 23.652 70.4843 23.544C70.4403 23.432 70.4183 23.312 70.4183 23.184Z" fill="#8F8F8F"/>
<defs>
<clipPath id="clip0_4897_104">
<rect width="30" height="30" fill="white" transform="translate(484 6)"/>
</clipPath>
</defs>
</svg>
