<svg width="700" height="54" viewBox="0 0 700 54" fill="none" xmlns="http://www.w3.org/2000/svg">
<rect width="700" height="54" rx="27" fill="#EFEFEF"/>
<rect x="599" width="101" height="54" rx="27" fill="#3670C7"/>
<g clip-path="url(#clip0_4897_37)">
<path d="M655.25 30H654.065L653.645 29.595C655.115 27.885 656 25.665 656 23.25C656 17.865 651.635 13.5 646.25 13.5C640.865 13.5 636.5 17.865 636.5 23.25C636.5 28.635 640.865 33 646.25 33C648.665 33 650.885 32.115 652.595 30.645L653 31.065V32.25L660.5 39.735L662.735 37.5L655.25 30ZM646.25 30C642.515 30 639.5 26.985 639.5 23.25C639.5 19.515 642.515 16.5 646.25 16.5C649.985 16.5 653 19.515 653 23.25C653 26.985 649.985 30 646.25 30Z" fill="white"/>
</g>
<path d="M47.424 25.536V22.104H45.48C45.08 22.104 44.744 22.1493 44.472 22.24C44.2053 22.3253 43.9893 22.4453 43.824 22.6C43.664 22.7547 43.5467 22.936 43.472 23.144C43.4027 23.3467 43.368 23.568 43.368 23.808C43.368 24.0693 43.4027 24.3067 43.472 24.52C43.5413 24.7333 43.6587 24.9147 43.824 25.064C43.9893 25.2133 44.2053 25.3307 44.472 25.416C44.744 25.496 45.08 25.536 45.48 25.536H47.424ZM49.576 32H47.424V27.216H46.24C46.112 27.216 45.9867 27.2293 45.864 27.256C45.7467 27.2773 45.632 27.32 45.52 27.384C45.4133 27.4427 45.3067 27.5253 45.2 27.632C45.0933 27.7333 44.9893 27.8667 44.888 28.032L42.848 31.256C42.7147 31.48 42.536 31.6613 42.312 31.8C42.088 31.9333 41.8213 32 41.512 32H39.888L42.544 27.936C42.864 27.424 43.272 27.0587 43.768 26.84C43.3413 26.728 42.968 26.576 42.648 26.384C42.3333 26.192 42.072 25.968 41.864 25.712C41.656 25.4507 41.5013 25.1627 41.4 24.848C41.2987 24.528 41.248 24.1867 41.248 23.824C41.248 23.328 41.3413 22.872 41.528 22.456C41.72 22.04 41.9947 21.6827 42.352 21.384C42.7147 21.0853 43.1573 20.8533 43.68 20.688C44.208 20.5173 44.808 20.432 45.48 20.432H49.576V32ZM63.102 23.792V32H61.126V27.208C61.126 27.0853 61.1313 26.952 61.142 26.808C61.158 26.6587 61.1767 26.5093 61.198 26.36C61.0913 26.6053 60.974 26.8213 60.846 27.008C60.8353 27.0187 60.782 27.0933 60.686 27.232C60.59 27.3653 60.4647 27.5387 60.31 27.752C60.1607 27.9653 59.99 28.208 59.798 28.48C59.606 28.7467 59.4113 29.0187 59.214 29.296C58.75 29.952 58.2247 30.6933 57.638 31.52C57.5633 31.632 57.4647 31.7413 57.342 31.848C57.2247 31.9547 57.0887 32.008 56.934 32.008H55.726V23.8H57.702V28.592C57.702 28.7147 57.694 28.8507 57.678 29C57.6673 29.144 57.6513 29.2907 57.63 29.44C57.7473 29.1787 57.8647 28.9627 57.982 28.792C57.9873 28.7813 58.038 28.7093 58.134 28.576C58.23 28.4427 58.3527 28.2693 58.502 28.056C58.6567 27.8427 58.83 27.6027 59.022 27.336C59.214 27.064 59.4087 26.7867 59.606 26.504C60.07 25.848 60.598 25.1067 61.19 24.28C61.2647 24.1627 61.3633 24.0533 61.486 23.952C61.6087 23.8453 61.7473 23.792 61.902 23.792H63.102ZM77.9101 30.536V34.16C77.9101 34.3413 77.8568 34.4853 77.7501 34.592C77.6488 34.6987 77.5155 34.752 77.3501 34.752H76.1181V32H65.0541V23.792H67.0301V30.536H69.7421V23.792H71.7181V30.536H74.4301V23.792H76.4061V30.536H77.9101ZM86.182 23.792L81.71 34.256C81.6513 34.3947 81.574 34.4987 81.478 34.568C81.3873 34.6427 81.246 34.68 81.054 34.68H79.582L81.118 31.384L77.798 23.792H79.534C79.6887 23.792 79.8087 23.8293 79.894 23.904C79.9847 23.9787 80.0513 24.064 80.094 24.16L81.838 28.416C81.8967 28.56 81.9447 28.704 81.982 28.848C82.0247 28.992 82.0647 29.1387 82.102 29.288C82.15 29.1387 82.198 28.992 82.246 28.848C82.294 28.6987 82.3473 28.552 82.406 28.408L84.054 24.16C84.0967 24.0533 84.166 23.9653 84.262 23.896C84.3633 23.8267 84.4753 23.792 84.598 23.792H86.182ZM86.2974 30.912C86.2974 30.7467 86.3267 30.5893 86.3854 30.44C86.4494 30.2907 86.5347 30.1627 86.6414 30.056C86.748 29.9493 86.876 29.864 87.0254 29.8C87.1747 29.736 87.3347 29.704 87.5054 29.704C87.676 29.704 87.8334 29.736 87.9774 29.8C88.1267 29.864 88.2547 29.9493 88.3614 30.056C88.4734 30.1627 88.5614 30.2907 88.6254 30.44C88.6894 30.5893 88.7214 30.7467 88.7214 30.912C88.7214 31.0827 88.6894 31.2427 88.6254 31.392C88.5614 31.536 88.4734 31.6613 88.3614 31.768C88.2547 31.8747 88.1267 31.9573 87.9774 32.016C87.8334 32.08 87.676 32.112 87.5054 32.112C87.3347 32.112 87.1747 32.08 87.0254 32.016C86.876 31.9573 86.748 31.8747 86.6414 31.768C86.5347 31.6613 86.4494 31.536 86.3854 31.392C86.3267 31.2427 86.2974 31.0827 86.2974 30.912ZM90.0943 30.912C90.0943 30.7467 90.1236 30.5893 90.1823 30.44C90.2463 30.2907 90.3316 30.1627 90.4383 30.056C90.5449 29.9493 90.6729 29.864 90.8223 29.8C90.9716 29.736 91.1316 29.704 91.3023 29.704C91.4729 29.704 91.6303 29.736 91.7743 29.8C91.9236 29.864 92.0516 29.9493 92.1583 30.056C92.2703 30.1627 92.3583 30.2907 92.4223 30.44C92.4863 30.5893 92.5183 30.7467 92.5183 30.912C92.5183 31.0827 92.4863 31.2427 92.4223 31.392C92.3583 31.536 92.2703 31.6613 92.1583 31.768C92.0516 31.8747 91.9236 31.9573 91.7743 32.016C91.6303 32.08 91.4729 32.112 91.3023 32.112C91.1316 32.112 90.9716 32.08 90.8223 32.016C90.6729 31.9573 90.5449 31.8747 90.4383 31.768C90.3316 31.6613 90.2463 31.536 90.1823 31.392C90.1236 31.2427 90.0943 31.0827 90.0943 30.912ZM93.8911 30.912C93.8911 30.7467 93.9205 30.5893 93.9791 30.44C94.0431 30.2907 94.1285 30.1627 94.2351 30.056C94.3418 29.9493 94.4698 29.864 94.6191 29.8C94.7685 29.736 94.9285 29.704 95.0991 29.704C95.2698 29.704 95.4271 29.736 95.5711 29.8C95.7205 29.864 95.8485 29.9493 95.9551 30.056C96.0671 30.1627 96.1551 30.2907 96.2191 30.44C96.2831 30.5893 96.3151 30.7467 96.3151 30.912C96.3151 31.0827 96.2831 31.2427 96.2191 31.392C96.1551 31.536 96.0671 31.6613 95.9551 31.768C95.8485 31.8747 95.7205 31.9573 95.5711 32.016C95.4271 32.08 95.2698 32.112 95.0991 32.112C94.9285 32.112 94.7685 32.08 94.6191 32.016C94.4698 31.9573 94.3418 31.8747 94.2351 31.768C94.1285 31.6613 94.0431 31.536 93.9791 31.392C93.9205 31.2427 93.8911 31.0827 93.8911 30.912Z" fill="#8F8F8F"/>
<defs>
<clipPath id="clip0_4897_37">
<rect width="36" height="36" fill="white" transform="translate(632 9)"/>
</clipPath>
</defs>
</svg>
