<svg width="30" height="30" viewBox="0 0 30 30" fill="none" xmlns="http://www.w3.org/2000/svg">
<g clip-path="url(#clip0_4897_85)">
<path d="M8.75 22.5C7.375 22.5 6.2625 23.625 6.2625 25C6.2625 26.375 7.375 27.5 8.75 27.5C10.125 27.5 11.25 26.375 11.25 25C11.25 23.625 10.125 22.5 8.75 22.5ZM1.25 2.5V5H3.75L8.25 14.4875L6.5625 17.55C6.3625 17.9 6.25 18.3125 6.25 18.75C6.25 20.125 7.375 21.25 8.75 21.25H23.75V18.75H9.275C9.1 18.75 8.9625 18.6125 8.9625 18.4375L9 18.2875L10.125 16.25H19.4375C20.375 16.25 21.2 15.7375 21.625 14.9625L26.1 6.85C26.2 6.675 26.25 6.4625 26.25 6.25C26.25 5.5625 25.6875 5 25 5H6.5125L5.3375 2.5H1.25ZM21.25 22.5C19.875 22.5 18.7625 23.625 18.7625 25C18.7625 26.375 19.875 27.5 21.25 27.5C22.625 27.5 23.75 26.375 23.75 25C23.75 23.625 22.625 22.5 21.25 22.5Z" fill="#2D2D2D"/>
<circle cx="23" cy="7" r="7" fill="white"/>
<path d="M25.867 10.39C26.0537 10.39 26.2007 10.4437 26.308 10.551C26.42 10.6537 26.476 10.7913 26.476 10.964V12H19.532V11.426C19.532 11.3093 19.5553 11.188 19.602 11.062C19.6533 10.9313 19.7327 10.8147 19.84 10.712L22.913 7.632C23.1697 7.37067 23.3983 7.121 23.599 6.883C23.8043 6.645 23.9747 6.40933 24.11 6.176C24.2453 5.94267 24.348 5.707 24.418 5.469C24.4927 5.22633 24.53 4.972 24.53 4.706C24.53 4.46333 24.495 4.251 24.425 4.069C24.355 3.88233 24.2547 3.726 24.124 3.6C23.998 3.474 23.844 3.38067 23.662 3.32C23.4847 3.25467 23.284 3.222 23.06 3.222C22.8547 3.222 22.6633 3.25233 22.486 3.313C22.3133 3.369 22.1593 3.45067 22.024 3.558C21.8887 3.66067 21.7743 3.782 21.681 3.922C21.5877 4.062 21.5177 4.216 21.471 4.384C21.3917 4.59867 21.289 4.741 21.163 4.811C21.037 4.881 20.855 4.89733 20.617 4.86L19.707 4.699C19.777 4.21367 19.9123 3.789 20.113 3.425C20.3137 3.05633 20.5633 2.75067 20.862 2.508C21.1653 2.26067 21.5107 2.07633 21.898 1.955C22.29 1.829 22.71 1.766 23.158 1.766C23.6247 1.766 24.0517 1.836 24.439 1.976C24.8263 2.11133 25.1577 2.305 25.433 2.557C25.7083 2.809 25.923 3.11233 26.077 3.467C26.231 3.82167 26.308 4.216 26.308 4.65C26.308 5.02333 26.252 5.36867 26.14 5.686C26.0327 6.00333 25.8857 6.30667 25.699 6.596C25.517 6.88533 25.3023 7.16533 25.055 7.436C24.8077 7.70667 24.5487 7.982 24.278 8.262L21.996 10.593C22.2153 10.5277 22.4323 10.4787 22.647 10.446C22.8663 10.4087 23.074 10.39 23.27 10.39H25.867Z" fill="#3670C7"/>
</g>
<defs>
<clipPath id="clip0_4897_85">
<rect width="30" height="30" fill="white"/>
</clipPath>
</defs>
</svg>
