<svg width="280" height="30" viewBox="0 0 280 30" fill="none" xmlns="http://www.w3.org/2000/svg">
<rect width="280" height="30" rx="15" fill="#EFEFEF"/>
<rect x="230" width="50" height="30" rx="15" fill="#3670C7"/>
<g clip-path="url(#clip0_4897_72)">
<path d="M257.917 16.6667H257.258L257.025 16.4417C257.842 15.4917 258.333 14.2583 258.333 12.9167C258.333 9.925 255.908 7.5 252.917 7.5C249.925 7.5 247.5 9.925 247.5 12.9167C247.5 15.9083 249.925 18.3333 252.917 18.3333C254.258 18.3333 255.492 17.8417 256.442 17.025L256.667 17.2583V17.9167L260.833 22.075L262.075 20.8333L257.917 16.6667ZM252.917 16.6667C250.842 16.6667 249.167 14.9917 249.167 12.9167C249.167 10.8417 250.842 9.16667 252.917 9.16667C254.992 9.16667 256.667 10.8417 256.667 12.9167C256.667 14.9917 254.992 16.6667 252.917 16.6667Z" fill="white"/>
</g>
<path d="M19.712 13.768V12.052H18.74C18.54 12.052 18.372 12.0747 18.236 12.12C18.1027 12.1627 17.9947 12.2227 17.912 12.3C17.832 12.3773 17.7733 12.468 17.736 12.572C17.7013 12.6733 17.684 12.784 17.684 12.904C17.684 13.0347 17.7013 13.1533 17.736 13.26C17.7707 13.3667 17.8293 13.4573 17.912 13.532C17.9947 13.6067 18.1027 13.6653 18.236 13.708C18.372 13.748 18.54 13.768 18.74 13.768H19.712ZM20.788 17H19.712V14.608H19.12C19.056 14.608 18.9933 14.6147 18.932 14.628C18.8733 14.6387 18.816 14.66 18.76 14.692C18.7067 14.7213 18.6533 14.7627 18.6 14.816C18.5467 14.8667 18.4947 14.9333 18.444 15.016L17.424 16.628C17.3573 16.74 17.268 16.8307 17.156 16.9C17.044 16.9667 16.9107 17 16.756 17H15.944L17.272 14.968C17.432 14.712 17.636 14.5293 17.884 14.42C17.6707 14.364 17.484 14.288 17.324 14.192C17.1667 14.096 17.036 13.984 16.932 13.856C16.828 13.7253 16.7507 13.5813 16.7 13.424C16.6493 13.264 16.624 13.0933 16.624 12.912C16.624 12.664 16.6707 12.436 16.764 12.228C16.86 12.02 16.9973 11.8413 17.176 11.692C17.3573 11.5427 17.5787 11.4267 17.84 11.344C18.104 11.2587 18.404 11.216 18.74 11.216H20.788V17ZM27.551 12.896V17H26.563V14.604C26.563 14.5427 26.5657 14.476 26.571 14.404C26.579 14.3293 26.5883 14.2547 26.599 14.18C26.5457 14.3027 26.487 14.4107 26.423 14.504C26.4177 14.5093 26.391 14.5467 26.343 14.616C26.295 14.6827 26.2323 14.7693 26.155 14.876C26.0803 14.9827 25.995 15.104 25.899 15.24C25.803 15.3733 25.7057 15.5093 25.607 15.648C25.375 15.976 25.1123 16.3467 24.819 16.76C24.7817 16.816 24.7323 16.8707 24.671 16.924C24.6123 16.9773 24.5443 17.004 24.467 17.004H23.863V12.9H24.851V15.296C24.851 15.3573 24.847 15.4253 24.839 15.5C24.8337 15.572 24.8257 15.6453 24.815 15.72C24.8737 15.5893 24.9323 15.4813 24.991 15.396C24.9937 15.3907 25.019 15.3547 25.067 15.288C25.115 15.2213 25.1763 15.1347 25.251 15.028C25.3283 14.9213 25.415 14.8013 25.511 14.668C25.607 14.532 25.7043 14.3933 25.803 14.252C26.035 13.924 26.299 13.5533 26.595 13.14C26.6323 13.0813 26.6817 13.0267 26.743 12.976C26.8043 12.9227 26.8737 12.896 26.951 12.896H27.551ZM34.9551 16.268V18.08C34.9551 18.1707 34.9284 18.2427 34.8751 18.296C34.8244 18.3493 34.7577 18.376 34.6751 18.376H34.0591V17H28.5271V12.896H29.5151V16.268H30.8711V12.896H31.8591V16.268H33.2151V12.896H34.2031V16.268H34.9551ZM39.091 12.896L36.855 18.128C36.8257 18.1973 36.787 18.2493 36.739 18.284C36.6937 18.3213 36.623 18.34 36.527 18.34H35.791L36.559 16.692L34.899 12.896H35.767C35.8443 12.896 35.9043 12.9147 35.947 12.952C35.9923 12.9893 36.0257 13.032 36.047 13.08L36.919 15.208C36.9483 15.28 36.9723 15.352 36.991 15.424C37.0123 15.496 37.0323 15.5693 37.051 15.644C37.075 15.5693 37.099 15.496 37.123 15.424C37.147 15.3493 37.1737 15.276 37.203 15.204L38.027 13.08C38.0483 13.0267 38.083 12.9827 38.131 12.948C38.1817 12.9133 38.2377 12.896 38.299 12.896H39.091ZM39.1487 16.456C39.1487 16.3733 39.1634 16.2947 39.1927 16.22C39.2247 16.1453 39.2674 16.0813 39.3207 16.028C39.374 15.9747 39.438 15.932 39.5127 15.9C39.5874 15.868 39.6674 15.852 39.7527 15.852C39.838 15.852 39.9167 15.868 39.9887 15.9C40.0634 15.932 40.1274 15.9747 40.1807 16.028C40.2367 16.0813 40.2807 16.1453 40.3127 16.22C40.3447 16.2947 40.3607 16.3733 40.3607 16.456C40.3607 16.5413 40.3447 16.6213 40.3127 16.696C40.2807 16.768 40.2367 16.8307 40.1807 16.884C40.1274 16.9373 40.0634 16.9787 39.9887 17.008C39.9167 17.04 39.838 17.056 39.7527 17.056C39.6674 17.056 39.5874 17.04 39.5127 17.008C39.438 16.9787 39.374 16.9373 39.3207 16.884C39.2674 16.8307 39.2247 16.768 39.1927 16.696C39.1634 16.6213 39.1487 16.5413 39.1487 16.456ZM41.0471 16.456C41.0471 16.3733 41.0618 16.2947 41.0911 16.22C41.1231 16.1453 41.1658 16.0813 41.2191 16.028C41.2725 15.9747 41.3365 15.932 41.4111 15.9C41.4858 15.868 41.5658 15.852 41.6511 15.852C41.7365 15.852 41.8151 15.868 41.8871 15.9C41.9618 15.932 42.0258 15.9747 42.0791 16.028C42.1351 16.0813 42.1791 16.1453 42.2111 16.22C42.2431 16.2947 42.2591 16.3733 42.2591 16.456C42.2591 16.5413 42.2431 16.6213 42.2111 16.696C42.1791 16.768 42.1351 16.8307 42.0791 16.884C42.0258 16.9373 41.9618 16.9787 41.8871 17.008C41.8151 17.04 41.7365 17.056 41.6511 17.056C41.5658 17.056 41.4858 17.04 41.4111 17.008C41.3365 16.9787 41.2725 16.9373 41.2191 16.884C41.1658 16.8307 41.1231 16.768 41.0911 16.696C41.0618 16.6213 41.0471 16.5413 41.0471 16.456ZM42.9456 16.456C42.9456 16.3733 42.9602 16.2947 42.9896 16.22C43.0216 16.1453 43.0642 16.0813 43.1176 16.028C43.1709 15.9747 43.2349 15.932 43.3096 15.9C43.3842 15.868 43.4642 15.852 43.5496 15.852C43.6349 15.852 43.7136 15.868 43.7856 15.9C43.8602 15.932 43.9242 15.9747 43.9776 16.028C44.0336 16.0813 44.0776 16.1453 44.1096 16.22C44.1416 16.2947 44.1576 16.3733 44.1576 16.456C44.1576 16.5413 44.1416 16.6213 44.1096 16.696C44.0776 16.768 44.0336 16.8307 43.9776 16.884C43.9242 16.9373 43.8602 16.9787 43.7856 17.008C43.7136 17.04 43.6349 17.056 43.5496 17.056C43.4642 17.056 43.3842 17.04 43.3096 17.008C43.2349 16.9787 43.1709 16.9373 43.1176 16.884C43.0642 16.8307 43.0216 16.768 42.9896 16.696C42.9602 16.6213 42.9456 16.5413 42.9456 16.456Z" fill="#8F8F8F"/>
<defs>
<clipPath id="clip0_4897_72">
<rect width="20" height="20" fill="white" transform="translate(245 5)"/>
</clipPath>
</defs>
</svg>
